<?xml version="1.0" encoding="UTF-8" standalone="no"?>
<!DOCTYPE svg PUBLIC "-//W3C//DTD SVG 20010904//EN"
              "http://www.w3.org/TR/2001/REC-SVG-20010904/DTD/svg10.dtd">

<svg xmlns="http://www.w3.org/2000/svg"
     width="3.92222in" height="5.55556in"
     viewBox="0 0 353 500">
  <path id="Selection"
        fill="none" stroke="black" stroke-width="1"
        d="M 216.00,81.00 C 219.46,81.01 227.81,81.04 230.26,83.59 232.41,85.83 232.03,91.05 232.00,94.00 231.90,102.29 228.81,110.00 227.00,118.00 234.64,120.43 240.45,126.46 246.00,132.00 246.00,132.00 265.04,151.00 265.04,151.00 293.83,181.14 306.58,207.25 313.41,248.00 314.66,255.45 316.82,267.69 316.82,275.00 316.82,293.09 307.66,326.65 299.74,343.00 293.06,356.79 277.67,379.21 263.00,384.62 251.17,388.98 238.42,388.82 232.33,376.00 230.96,373.12 230.05,370.22 230.13,367.00 230.29,360.59 237.54,343.85 240.19,337.00 245.80,322.48 248.01,313.47 249.09,298.00 249.09,298.00 249.82,291.00 249.82,291.00 249.82,291.00 249.09,284.00 249.09,284.00 248.78,279.58 249.31,278.61 248.00,274.00 248.00,274.00 246.54,286.00 246.54,286.00 241.88,312.10 229.69,335.64 214.42,357.00 207.52,366.66 203.05,372.75 194.00,380.83 185.58,388.34 162.56,402.48 152.00,407.00 132.58,415.32 112.21,420.71 91.00,417.82 81.11,416.47 68.27,407.67 67.20,397.00 66.91,394.16 67.47,391.68 68.36,389.00 72.41,376.86 81.56,375.22 92.00,370.25 101.04,365.96 111.61,361.70 120.00,356.30 136.55,345.66 148.20,332.20 159.00,316.00 127.67,329.49 113.51,337.41 78.00,337.00 71.67,336.92 59.72,335.01 54.00,332.47 41.88,327.10 31.89,314.20 38.82,301.00 44.76,289.70 57.01,288.86 68.00,285.71 89.08,279.65 100.92,276.60 119.00,262.76 137.99,248.24 153.72,228.78 163.69,207.00 163.69,207.00 183.05,153.00 183.05,153.00 183.05,153.00 190.44,136.00 190.44,136.00 193.19,129.92 197.72,123.51 203.00,119.39 207.32,116.03 210.90,115.96 213.26,112.78 215.04,110.38 215.03,106.88 215.42,104.00 215.42,104.00 216.00,81.00 216.00,81.00 Z" />
</svg>
