<?xml version="1.0" encoding="UTF-8" standalone="no"?>
<!DOCTYPE svg PUBLIC "-//W3C//DTD SVG 20010904//EN"
              "http://www.w3.org/TR/2001/REC-SVG-20010904/DTD/svg10.dtd">

<svg xmlns="http://www.w3.org/2000/svg"
     width="3.92222in" height="5.55556in"
     viewBox="0 0 353 500">
  <path id="Selection"
        fill="none" stroke="black" stroke-width="1"
        d="M 112.00,262.00 C 112.00,235.42 120.13,205.36 134.69,183.00 142.89,170.42 153.41,159.54 164.00,149.00 164.00,149.00 181.28,133.82 181.28,133.82 183.71,130.49 183.65,125.91 184.28,124.15 185.12,121.77 186.59,121.17 189.00,121.95 191.42,122.73 193.03,124.44 193.22,127.02 193.45,129.97 190.02,137.48 190.00,148.00 190.00,148.00 190.00,165.00 190.00,165.00 190.03,187.09 199.40,212.01 211.88,230.00 214.76,234.15 225.34,248.05 229.28,249.81 231.58,250.83 235.55,249.50 238.00,249.00 241.05,248.39 252.20,247.11 255.00,247.32 281.44,249.30 303.56,261.41 312.25,288.00 315.25,297.18 315.11,303.59 315.00,313.00 314.89,322.16 311.65,332.08 307.13,340.00 293.69,363.55 271.48,374.31 245.00,374.00 237.65,373.91 229.80,371.92 223.00,369.18 215.70,366.23 209.69,362.42 204.00,356.96 171.42,325.70 181.66,271.91 223.00,254.00 214.88,243.15 210.18,238.68 203.31,226.00 188.72,199.07 185.00,172.15 185.00,142.00 175.99,146.40 168.32,153.18 161.00,159.92 161.00,159.92 153.09,167.04 153.09,167.04 131.77,188.93 118.05,222.36 118.00,253.00 118.00,253.00 118.00,262.00 118.00,262.00 130.31,262.00 137.64,262.92 149.00,268.32 184.09,284.99 193.54,330.18 171.22,361.00 158.44,378.64 137.53,388.24 116.00,388.00 75.16,387.53 43.27,347.92 53.92,308.00 56.39,298.75 61.26,290.25 67.44,283.00 72.43,277.15 80.03,271.76 87.00,268.49 94.60,264.92 103.60,262.39 112.00,262.00 Z" />
</svg>
