<?xml version="1.0" encoding="UTF-8" standalone="no"?>
<!DOCTYPE svg PUBLIC "-//W3C//DTD SVG 20010904//EN"
              "http://www.w3.org/TR/2001/REC-SVG-20010904/DTD/svg10.dtd">

<svg xmlns="http://www.w3.org/2000/svg"
     width="5.55556in" height="5.55556in"
     viewBox="0 0 500 500">
  <path id="Selection"
        fill="none" stroke="black" stroke-width="1"
        d="M 231.00,155.00 C 233.52,144.96 240.89,139.73 245.69,131.00 245.69,131.00 261.81,97.00 261.81,97.00 261.81,97.00 290.70,65.00 290.70,65.00 295.26,59.64 298.69,53.31 301.74,47.00 303.31,43.76 304.84,38.80 308.11,36.88 309.91,36.05 312.10,36.04 314.00,36.88 321.06,39.36 319.97,45.98 320.00,52.00 320.03,57.83 320.86,63.94 323.99,69.00 329.59,78.03 340.42,82.67 346.82,89.17 354.46,96.94 354.29,102.84 357.71,112.00 361.05,120.97 362.90,118.86 363.00,130.00 363.00,130.00 349.00,124.00 349.00,124.00 349.00,124.00 352.92,144.00 352.92,144.00 356.80,166.99 361.04,196.91 361.00,220.00 361.00,220.00 360.00,239.00 360.00,239.00 360.00,239.00 355.13,275.00 355.13,275.00 349.68,313.83 340.24,344.15 322.26,379.00 315.50,392.10 307.37,406.47 298.19,418.00 278.36,442.89 249.24,464.84 216.00,465.00 194.34,465.10 173.05,459.28 157.09,443.83 143.21,430.40 135.78,406.99 136.00,388.00 136.09,380.26 138.25,371.34 140.67,364.00 152.39,328.40 176.87,306.95 199.92,279.00 219.33,255.46 235.68,222.94 245.33,194.00 250.60,178.19 254.95,161.78 255.00,145.00 246.36,150.18 240.93,152.74 231.00,155.00 Z" />
</svg>
