<?xml version="1.0" encoding="UTF-8" standalone="no"?>
<!DOCTYPE svg PUBLIC "-//W3C//DTD SVG 20010904//EN"
              "http://www.w3.org/TR/2001/REC-SVG-20010904/DTD/svg10.dtd">

<svg xmlns="http://www.w3.org/2000/svg"
     width="3.92222in" height="5.55556in"
     viewBox="0 0 353 500">
  <path id="Selection"
        fill="none" stroke="black" stroke-width="1"
        d="M 36.00,82.00 C 42.16,80.52 46.71,81.99 53.00,82.00 63.39,82.02 76.00,82.23 86.00,79.23 98.04,75.62 109.81,65.85 121.00,60.27 129.54,56.01 140.47,53.80 150.00,54.01 156.58,54.16 165.43,55.96 170.99,59.56 176.96,63.42 177.54,67.05 181.09,68.98 183.64,70.36 188.08,69.97 191.00,70.00 199.91,70.11 203.09,72.72 207.00,72.88 209.28,72.97 228.66,66.84 230.46,77.03 231.31,81.81 221.36,88.62 218.00,92.00 206.13,103.96 202.03,114.84 196.00,130.00 211.14,134.02 222.21,137.78 233.71,149.29 242.43,158.00 245.35,166.20 250.31,177.00 250.31,177.00 268.86,214.00 268.86,214.00 268.86,214.00 280.05,234.00 280.05,234.00 292.75,253.94 303.52,266.48 310.97,290.00 315.69,304.90 316.18,316.62 316.00,332.00 315.93,337.88 314.57,345.19 313.40,351.00 304.61,394.71 270.47,428.46 228.00,440.57 218.64,443.24 210.59,444.24 201.00,445.17 201.00,445.17 192.00,446.00 192.00,446.00 144.85,446.55 99.68,433.90 72.69,392.00 67.58,384.07 64.05,376.93 61.00,368.00 58.02,359.27 55.11,348.24 55.00,339.00 54.77,319.31 54.92,308.19 61.03,289.00 68.96,264.08 87.01,239.62 100.40,217.00 100.40,217.00 121.31,171.00 121.31,171.00 126.28,161.84 132.57,154.28 140.00,147.01 145.30,141.84 151.10,136.89 158.00,134.02 165.21,131.02 173.24,129.63 181.00,129.00 181.29,115.75 184.43,100.37 191.47,89.00 191.47,89.00 203.00,75.00 203.00,75.00 203.00,75.00 189.00,73.01 189.00,73.01 185.14,72.93 180.57,73.04 177.00,74.65 165.80,79.69 153.11,102.72 145.96,113.00 140.26,121.19 132.86,129.31 124.00,134.10 107.63,142.96 82.63,141.93 67.00,131.91 59.30,126.97 53.20,119.78 48.46,112.00 43.98,104.64 37.30,90.44 36.00,82.00 Z" />
</svg>
