<?xml version="1.0" encoding="UTF-8" standalone="no"?>
<!DOCTYPE svg PUBLIC "-//W3C//DTD SVG 20010904//EN"
              "http://www.w3.org/TR/2001/REC-SVG-20010904/DTD/svg10.dtd">

<svg xmlns="http://www.w3.org/2000/svg"
     width="3.92222in" height="5.55556in"
     viewBox="0 0 353 500">
  <path id="Selection"
        fill="none" stroke="black" stroke-width="1"
        d="M 164.00,86.00 C 164.00,86.00 184.00,100.71 184.00,100.71 194.87,106.94 214.99,114.02 222.91,121.30 230.44,128.23 232.23,136.05 237.00,141.00 237.00,141.00 240.86,128.00 240.86,128.00 243.73,117.99 245.36,110.33 246.72,100.00 247.28,95.72 247.25,88.59 252.11,86.78 256.53,85.12 268.79,89.62 268.40,101.00 267.90,115.34 255.50,136.25 250.00,150.00 269.29,150.42 277.08,158.57 294.00,163.26 305.09,166.33 307.53,164.03 318.00,164.00 314.25,179.94 300.50,192.23 284.00,193.00 291.88,200.81 294.55,201.93 300.55,212.00 310.51,228.70 314.24,245.84 315.68,265.00 315.68,265.00 315.02,274.00 315.02,274.00 313.13,301.92 298.20,325.56 276.00,342.10 264.69,350.53 248.26,356.11 235.00,361.05 235.00,361.05 168.00,385.42 168.00,385.42 168.00,385.42 120.00,403.20 120.00,403.20 104.87,409.15 87.33,416.26 71.00,411.23 46.84,403.78 43.39,378.49 41.91,357.00 41.91,357.00 41.01,345.00 41.01,345.00 41.01,345.00 41.96,336.00 41.96,336.00 41.96,336.00 41.96,326.00 41.96,326.00 41.96,326.00 43.00,313.00 43.00,313.00 43.00,313.00 43.00,305.00 43.00,305.00 43.00,305.00 43.91,285.00 43.91,285.00 40.31,232.29 28.23,168.06 78.00,131.92 84.70,127.06 92.17,123.30 100.00,120.67 110.33,117.19 121.06,115.02 132.00,115.00 132.00,115.00 141.00,115.00 141.00,115.00 147.71,115.08 165.56,118.03 172.00,120.00 168.87,108.36 164.27,98.49 164.00,86.00 Z" />
</svg>
