<?xml version="1.0" encoding="UTF-8" standalone="no"?>
<!DOCTYPE svg PUBLIC "-//W3C//DTD SVG 20010904//EN"
              "http://www.w3.org/TR/2001/REC-SVG-20010904/DTD/svg10.dtd">

<svg xmlns="http://www.w3.org/2000/svg"
     width="5.55556in" height="5.55556in"
     viewBox="0 0 500 500">
  <path id="Selection"
        fill="none" stroke="black" stroke-width="1"
        d="M 261.00,209.00 C 260.51,214.02 257.72,216.88 255.00,221.00 255.00,221.00 242.67,240.00 242.67,240.00 216.24,279.58 182.07,293.60 159.20,332.00 154.22,340.36 150.72,349.57 148.37,359.00 147.02,364.44 147.24,371.80 142.86,375.57 138.52,379.31 131.40,379.06 126.00,379.00 117.18,378.89 101.59,371.99 103.43,361.00 104.14,356.77 111.63,346.94 114.42,343.00 114.42,343.00 142.13,305.00 142.13,305.00 142.13,305.00 174.17,267.00 174.17,267.00 182.92,257.27 191.92,247.65 199.57,237.00 208.25,224.91 214.31,212.66 220.01,199.00 220.01,199.00 228.02,184.00 228.02,184.00 229.12,179.38 224.33,177.46 225.69,172.00 226.58,168.45 231.42,162.98 233.80,160.00 233.80,160.00 251.00,138.00 251.00,138.00 253.58,134.72 256.53,129.77 261.01,129.28 265.80,128.75 271.34,133.88 275.00,136.63 275.00,136.63 306.00,159.76 306.00,159.76 312.10,163.72 325.73,168.13 333.00,170.69 333.00,170.69 397.00,190.00 397.00,190.00 392.66,220.79 371.15,253.04 348.00,272.87 340.80,279.03 326.92,289.18 318.00,292.00 318.00,292.00 281.31,228.00 281.31,228.00 278.49,223.62 272.06,212.18 267.96,210.02 265.81,208.89 263.35,209.03 261.00,209.00 Z" />
</svg>
