<?xml version="1.0" encoding="UTF-8" standalone="no"?>
<!DOCTYPE svg PUBLIC "-//W3C//DTD SVG 20010904//EN"
              "http://www.w3.org/TR/2001/REC-SVG-20010904/DTD/svg10.dtd">

<svg xmlns="http://www.w3.org/2000/svg"
     width="3.92222in" height="5.55556in"
     viewBox="0 0 353 500">
  <path id="Selection"
        fill="none" stroke="black" stroke-width="1"
        d="M 111.00,286.00 C 108.54,298.08 97.47,303.72 86.00,303.99 76.97,304.19 71.24,302.36 65.39,295.00 65.39,295.00 59.37,285.60 59.37,285.60 56.35,282.94 52.15,284.80 48.00,283.27 45.91,282.50 43.81,280.85 42.00,279.55 32.97,273.04 34.86,268.39 35.00,258.00 35.06,253.58 39.34,238.56 42.42,235.63 50.36,228.07 66.64,227.67 77.00,226.91 77.00,226.91 87.00,226.00 87.00,226.00 93.87,225.92 107.21,226.88 113.00,223.84 113.00,223.84 138.00,202.52 138.00,202.52 146.45,196.89 157.06,196.02 167.00,196.00 167.00,196.00 190.00,195.11 190.00,195.11 190.00,195.11 270.00,195.11 270.00,195.11 270.00,195.11 295.00,195.11 295.00,195.11 299.97,196.38 303.13,200.55 298.00,204.00 304.07,211.18 304.45,213.28 308.68,220.91 310.37,223.97 312.28,225.52 313.28,229.01 314.56,233.49 313.62,237.93 313.86,242.42 313.86,242.42 315.11,255.00 315.11,255.00 315.91,262.61 321.67,267.90 313.39,275.30 311.10,277.36 299.25,281.64 296.00,281.91 291.95,282.24 284.74,281.57 281.30,283.98 278.25,286.12 278.45,290.60 275.78,294.99 271.73,301.63 262.60,305.28 255.00,304.68 249.12,304.21 241.69,302.25 237.09,298.47 228.48,291.39 233.14,287.03 220.00,287.00 220.00,287.00 178.00,287.00 178.00,287.00 178.00,287.00 161.00,286.00 161.00,286.00 161.00,286.00 111.00,286.00 111.00,286.00 Z" />
</svg>
