<?xml version="1.0" encoding="UTF-8" standalone="no"?>
<!DOCTYPE svg PUBLIC "-//W3C//DTD SVG 20010904//EN"
              "http://www.w3.org/TR/2001/REC-SVG-20010904/DTD/svg10.dtd">

<svg xmlns="http://www.w3.org/2000/svg"
     width="5.55556in" height="5.55556in"
     viewBox="0 0 500 500">
  <path id="Selection"
        fill="none" stroke="black" stroke-width="1"
        d="M 336.00,109.00 C 313.08,109.21 307.42,125.43 296.66,142.00 296.66,142.00 253.42,211.00 253.42,211.00 253.42,211.00 240.42,232.00 240.42,232.00 238.80,234.62 236.14,239.67 233.79,241.40 230.95,243.50 228.54,242.47 224.58,244.05 224.58,244.05 200.00,252.14 200.00,252.14 196.51,253.13 191.58,254.83 188.00,253.98 183.12,252.82 176.86,245.91 171.00,243.00 159.60,237.34 142.88,240.93 132.00,246.37 113.47,255.63 94.68,277.77 106.88,299.00 109.15,302.95 110.99,304.99 115.00,307.20 129.35,315.10 141.37,306.92 147.00,305.89 150.92,305.17 152.68,306.97 156.00,306.51 163.49,305.47 163.39,298.68 168.11,294.52 168.11,294.52 187.00,281.67 187.00,281.67 190.95,279.03 204.49,269.45 208.00,268.52 211.87,267.50 221.21,269.56 224.98,271.20 229.02,272.95 228.98,276.14 229.88,280.00 230.55,282.88 231.99,288.20 231.50,291.00 230.87,294.56 224.92,302.63 222.67,306.00 222.67,306.00 205.48,330.72 205.48,330.72 201.14,335.11 197.91,332.44 194.72,338.06 191.71,343.37 194.62,345.64 193.38,351.00 192.56,354.52 189.82,358.95 189.17,365.00 187.85,377.36 196.09,384.98 207.00,388.91 225.45,395.55 246.79,384.22 253.30,366.00 257.31,354.79 256.46,345.59 251.02,335.00 248.78,330.63 243.45,324.28 242.64,320.00 241.89,315.96 244.68,308.97 246.00,305.00 248.78,296.68 257.52,271.49 262.20,265.55 265.53,261.33 285.16,251.34 291.00,248.00 291.00,248.00 362.00,207.86 362.00,207.86 379.06,198.34 396.79,192.73 397.00,170.00 397.00,170.00 354.00,189.69 354.00,189.69 354.00,189.69 280.00,224.00 280.00,224.00 280.00,224.00 293.75,196.00 293.75,196.00 293.75,196.00 319.25,145.00 319.25,145.00 323.23,137.04 334.62,116.35 336.00,109.00 Z" />
</svg>
