<?xml version="1.0" encoding="UTF-8" standalone="no"?>
<!DOCTYPE svg PUBLIC "-//W3C//DTD SVG 20010904//EN"
              "http://www.w3.org/TR/2001/REC-SVG-20010904/DTD/svg10.dtd">

<svg xmlns="http://www.w3.org/2000/svg"
     width="5.55556in" height="5.55556in"
     viewBox="0 0 500 500">
  <path id="Selection"
        fill="none" stroke="black" stroke-width="1"
        d="M 204.00,146.00 C 197.89,142.97 183.57,125.11 178.07,119.00 175.65,116.31 171.12,111.85 173.17,107.89 175.27,103.84 179.92,103.11 184.00,103.01 199.44,102.63 215.36,108.35 226.91,118.62 256.59,145.02 235.47,176.36 249.87,210.00 255.93,224.15 269.24,239.48 278.63,252.00 278.63,252.00 335.37,327.00 335.37,327.00 335.37,327.00 356.37,355.00 356.37,355.00 361.02,361.20 366.14,366.93 366.81,375.00 368.35,393.33 347.21,403.15 333.09,392.21 329.34,389.31 324.81,382.09 321.98,378.00 321.98,378.00 304.58,353.00 304.58,353.00 304.58,353.00 258.42,288.00 258.42,288.00 248.15,273.63 238.56,258.52 226.00,246.00 214.97,235.01 206.25,230.49 193.00,223.14 193.00,223.14 178.00,215.32 178.00,215.32 170.43,212.32 169.27,219.12 164.10,219.26 161.17,219.34 157.45,214.28 156.00,212.00 147.13,215.81 145.70,207.53 154.00,205.00 154.00,205.00 150.00,201.00 150.00,201.00 150.00,201.00 151.00,198.00 151.00,198.00 146.25,196.35 144.32,191.36 142.31,187.00 137.50,176.57 135.05,166.35 133.84,155.00 133.17,148.73 130.69,141.82 138.00,139.00 138.00,139.00 164.98,170.00 164.98,170.00 164.98,170.00 167.00,177.00 167.00,177.00 167.00,177.00 167.00,173.00 167.00,173.00 172.96,173.00 179.97,172.35 185.00,176.00 194.12,165.58 199.67,167.64 203.06,153.00 204.15,148.63 204.68,147.29 203.06,143.00 203.06,143.00 204.00,146.00 204.00,146.00 Z" />
</svg>
