<?xml version="1.0" encoding="UTF-8" standalone="no"?>
<!DOCTYPE svg PUBLIC "-//W3C//DTD SVG 20010904//EN"
              "http://www.w3.org/TR/2001/REC-SVG-20010904/DTD/svg10.dtd">

<svg xmlns="http://www.w3.org/2000/svg"
     width="5.55556in" height="5.55556in"
     viewBox="0 0 500 500">
  <path id="Selection"
        fill="none" stroke="black" stroke-width="1"
        d="M 121.00,146.00 C 106.94,131.94 100.60,130.06 89.46,112.00 86.97,107.97 80.44,97.87 87.39,94.57 89.01,93.81 94.03,93.98 96.00,94.00 107.44,94.14 139.52,101.81 150.00,106.34 150.00,106.34 182.00,124.86 182.00,124.86 182.00,124.86 196.00,135.90 196.00,135.90 196.00,135.90 206.00,141.60 206.00,141.60 206.00,141.60 218.00,151.00 218.00,151.00 218.00,151.00 233.96,164.09 233.96,164.09 246.19,175.98 259.52,196.40 264.00,213.00 264.00,213.00 282.00,198.80 282.00,198.80 285.29,196.17 290.14,191.79 294.00,190.47 301.50,187.91 310.31,189.06 318.00,189.83 323.19,190.35 329.46,190.17 334.00,193.03 343.78,199.18 355.59,214.74 364.00,218.37 370.85,221.31 397.48,223.69 407.00,225.25 407.00,225.25 456.00,234.12 456.00,234.12 464.14,236.26 471.01,236.64 475.00,245.00 469.02,246.06 457.22,239.46 450.00,238.09 436.19,235.48 420.08,235.02 406.00,235.00 406.00,235.00 394.00,234.09 394.00,234.09 394.00,234.09 363.00,236.01 363.00,236.01 359.86,236.09 355.51,235.03 353.00,236.01 350.19,237.32 345.45,242.65 343.00,244.96 338.75,248.96 336.22,250.29 331.00,252.69 331.00,252.69 317.00,258.47 317.00,258.47 312.97,259.42 308.88,258.52 306.07,262.28 306.07,262.28 299.20,278.00 299.20,278.00 292.02,295.82 294.89,291.30 284.42,308.00 282.71,310.73 280.76,314.23 278.48,316.47 276.15,318.77 268.20,323.42 265.00,325.42 265.00,325.42 245.00,338.67 245.00,338.67 245.00,338.67 233.91,348.53 233.91,348.53 231.68,349.35 230.47,347.36 226.96,348.53 222.19,350.04 219.82,354.46 215.93,355.80 215.93,355.80 209.72,355.80 209.72,355.80 209.72,355.80 203.00,357.83 203.00,357.83 203.00,357.83 185.00,360.66 185.00,360.66 181.27,361.50 169.14,365.26 166.00,366.91 166.00,366.91 144.00,381.60 144.00,381.60 139.20,384.30 138.35,382.60 135.00,384.14 132.97,385.07 128.90,388.67 127.00,390.25 127.00,390.25 112.00,402.18 112.00,402.18 110.35,403.42 107.56,405.75 105.33,404.75 101.96,403.24 105.39,398.43 106.00,393.00 106.00,393.00 103.00,394.00 103.00,394.00 103.77,377.44 114.08,369.92 125.00,359.00 125.00,359.00 150.67,333.99 150.67,333.99 150.67,333.99 162.95,315.00 162.95,315.00 162.95,315.00 174.00,297.00 174.00,297.00 175.02,295.30 177.78,291.55 177.36,289.59 176.74,286.64 172.62,285.70 170.48,279.99 168.48,274.66 167.96,268.92 164.87,264.00 154.66,247.75 134.04,234.23 119.00,222.20 119.00,222.20 75.00,188.23 75.00,188.23 75.00,188.23 52.00,175.21 52.00,175.21 52.00,175.21 39.00,163.51 39.00,163.51 35.16,160.46 26.49,155.70 25.32,150.96 23.70,144.42 28.16,142.22 33.00,139.59 41.89,134.76 43.94,136.53 53.00,135.91 53.00,135.91 63.00,135.00 63.00,135.00 63.00,135.00 71.00,135.00 71.00,135.00 80.63,135.05 110.54,142.97 121.00,146.00 Z" />
</svg>
