<?xml version="1.0" encoding="UTF-8" standalone="no"?>
<!DOCTYPE svg PUBLIC "-//W3C//DTD SVG 20010904//EN"
              "http://www.w3.org/TR/2001/REC-SVG-20010904/DTD/svg10.dtd">

<svg xmlns="http://www.w3.org/2000/svg"
     width="84.674mm" height="84.674mm"
     viewBox="0 0 500 500">
  <path id="Selection #1"
        fill="none" stroke="black" stroke-width="1"
        d="M 404.00,25.00 C 399.80,28.01 395.18,33.47 391.00,35.11 391.00,35.11 353.00,41.89 353.00,41.89 349.77,43.16 338.05,54.17 335.21,57.17 331.57,61.01 325.98,71.91 323.14,77.00 323.14,77.00 299.25,120.00 299.25,120.00 296.81,124.87 288.53,142.79 285.73,145.68 280.73,150.84 261.22,159.19 254.00,160.87 251.77,161.07 249.28,161.00 247.00,160.87 247.00,160.87 206.00,160.87 206.00,160.87 189.82,160.97 167.40,152.79 152.00,147.31 152.00,147.31 136.00,141.89 136.00,141.89 136.00,141.89 110.00,141.89 110.00,141.89 107.49,142.00 104.35,141.86 102.00,142.73 99.00,143.85 93.68,148.44 91.00,150.61 91.00,150.61 68.00,169.28 68.00,169.28 60.37,174.64 54.91,169.86 50.63,173.60 48.59,175.38 44.23,184.17 42.69,187.00 42.69,187.00 37.95,196.00 37.95,196.00 36.03,201.04 34.56,217.61 33.72,224.00 33.72,224.00 30.74,251.00 30.74,251.00 30.74,251.00 33.00,282.00 33.00,282.00 33.03,289.47 31.88,298.73 30.10,306.00 29.27,309.40 26.37,317.09 26.60,320.00 26.97,324.72 36.70,335.31 38.44,342.00 38.44,342.00 40.09,363.00 40.09,363.00 40.49,368.67 41.95,376.49 40.77,382.08 38.05,394.97 34.59,394.48 33.00,402.00 33.00,402.00 40.00,399.00 40.00,399.00 40.00,399.00 44.35,409.00 44.35,409.00 45.90,414.14 43.75,421.62 51.94,432.00 51.94,432.00 51.94,416.00 51.94,416.00 51.94,416.00 62.55,389.00 62.55,389.00 62.55,389.00 66.00,376.00 66.00,376.00 68.87,385.94 67.98,393.81 68.00,404.00 68.01,408.86 70.16,428.88 71.54,433.00 72.56,436.05 77.03,442.76 78.67,449.00 80.28,455.15 75.94,458.07 78.04,461.35 79.29,463.33 83.82,464.58 86.00,465.34 95.36,468.62 96.71,468.70 106.00,470.71 108.79,471.54 113.92,473.46 115.96,470.71 118.49,466.90 112.67,452.96 111.00,449.00 122.81,455.12 125.80,453.97 138.00,455.58 140.93,455.96 146.87,457.02 147.50,452.85 147.79,450.94 146.32,446.90 145.66,445.00 143.90,439.99 139.21,432.03 135.79,428.00 133.37,425.15 129.72,422.13 127.93,419.00 126.11,415.79 124.07,403.35 123.20,399.00 123.20,399.00 117.60,371.00 117.60,371.00 116.72,366.61 114.86,359.20 115.18,355.00 115.71,348.03 119.81,340.48 122.58,334.00 129.55,317.67 128.14,317.88 139.12,303.00 143.66,296.84 144.57,294.77 151.00,290.01 154.36,287.53 164.27,279.77 168.00,279.68 170.24,279.62 175.69,282.08 178.00,283.00 178.00,283.00 198.00,291.00 198.00,291.00 205.44,293.87 214.98,293.77 223.00,294.72 223.00,294.72 278.00,299.43 278.00,299.43 282.66,300.10 294.37,301.11 297.36,304.31 302.42,309.71 302.92,318.12 303.00,325.00 303.00,325.00 304.00,339.00 304.00,339.00 304.00,339.00 304.00,349.00 304.00,349.00 304.00,349.00 299.00,397.00 299.00,397.00 299.00,397.00 299.00,423.00 299.00,423.00 299.13,433.77 303.99,437.43 304.51,444.00 304.51,444.00 304.00,451.00 304.00,451.00 304.00,451.00 320.00,453.90 320.00,453.90 325.51,454.20 331.08,453.60 333.81,460.04 334.94,462.71 333.70,469.15 333.00,472.00 333.00,472.00 342.00,474.80 342.00,474.80 342.00,474.80 372.00,472.00 372.00,472.00 370.91,467.34 367.39,458.81 364.60,455.00 360.95,450.02 357.01,447.42 355.66,441.00 348.62,412.56 352.39,376.87 355.66,348.00 355.66,348.00 360.48,310.00 360.48,310.00 362.63,299.97 381.58,285.76 384.40,278.00 384.40,278.00 387.15,248.00 387.15,248.00 387.15,248.00 398.42,209.00 398.42,209.00 398.42,209.00 403.33,192.00 403.33,192.00 403.33,192.00 405.17,174.00 405.17,174.00 405.17,174.00 408.00,144.00 408.00,144.00 408.00,144.00 408.00,130.82 408.00,130.82 408.00,130.82 416.00,130.82 416.00,130.82 416.00,130.82 439.00,136.85 439.00,136.85 444.60,139.16 451.48,145.10 458.00,144.43 461.63,144.05 470.98,138.20 472.40,134.82 473.22,132.87 472.94,128.39 473.17,126.00 473.67,120.75 475.00,118.09 472.20,113.00 466.85,103.27 454.78,97.51 446.00,90.77 431.62,79.72 427.03,73.59 416.00,60.00 420.72,58.27 423.64,56.82 427.00,53.00 423.32,48.39 416.39,38.58 411.00,36.60 409.05,35.88 406.10,36.01 404.00,36.00 404.00,36.00 404.00,25.00 404.00,25.00 Z" />
</svg>
