<?xml version="1.0" encoding="UTF-8" standalone="no"?>
<!DOCTYPE svg PUBLIC "-//W3C//DTD SVG 20010904//EN"
              "http://www.w3.org/TR/2001/REC-SVG-20010904/DTD/svg10.dtd">

<svg xmlns="http://www.w3.org/2000/svg"
     width="84.674mm" height="84.674mm"
     viewBox="0 0 500 500">
  <path id="Selection #1"
        fill="none" stroke="black" stroke-width="1"
        d="M 403.00,165.00 C 403.47,162.89 404.34,160.09 404.38,158.00 404.45,154.41 399.44,138.57 398.14,134.00 393.35,117.11 391.18,109.57 388.58,92.00 388.58,92.00 387.13,81.00 387.13,81.00 387.02,75.83 390.15,68.91 391.95,64.00 391.95,64.00 402.00,36.00 402.00,36.00 403.42,31.85 405.24,22.79 411.62,25.58 413.86,26.56 415.55,29.94 416.70,32.00 416.70,32.00 425.00,47.00 425.00,47.00 426.62,49.82 430.53,56.26 431.35,59.00 431.35,59.00 433.00,80.00 433.00,80.00 433.25,101.45 429.11,122.71 426.84,144.00 426.84,144.00 425.37,156.00 425.37,156.00 425.37,156.00 426.84,171.00 426.84,171.00 427.30,175.39 427.84,184.29 429.57,188.00 432.00,193.23 437.07,196.95 440.33,204.00 440.33,204.00 462.86,258.00 462.86,258.00 462.86,258.00 474.57,283.00 474.57,283.00 475.13,286.29 473.52,290.77 472.58,294.00 471.78,296.71 470.27,301.66 468.92,304.00 466.95,307.39 456.37,318.30 453.00,319.98 451.00,320.98 449.17,320.96 447.00,321.00 447.00,321.00 426.00,321.00 426.00,321.00 426.00,321.00 423.41,331.68 423.41,331.68 423.41,331.68 414.51,340.09 414.51,340.09 414.51,340.09 408.74,366.00 408.74,366.00 408.74,366.00 386.19,399.00 386.19,399.00 386.19,399.00 371.00,418.00 371.00,418.00 385.88,422.35 387.29,422.82 401.00,430.58 404.41,432.50 409.91,434.87 411.00,439.01 411.89,442.38 409.23,443.90 408.00,446.28 406.77,448.67 407.01,451.40 407.00,454.00 407.00,454.00 372.00,454.00 372.00,454.00 372.49,456.43 374.07,461.62 373.31,463.79 371.95,467.68 361.81,470.90 358.00,470.52 358.00,470.52 326.00,464.43 326.00,464.43 326.00,464.43 299.00,460.42 299.00,460.42 293.76,458.42 289.16,451.81 283.00,449.11 278.38,447.08 262.26,443.00 259.74,440.30 258.44,438.91 258.39,437.72 258.00,436.00 258.00,436.00 224.00,448.67 224.00,448.67 224.00,448.67 210.02,454.43 210.02,454.43 210.02,454.43 209.00,468.00 209.00,468.00 209.00,468.00 203.00,468.00 203.00,468.00 203.00,468.00 202.00,475.00 202.00,475.00 202.00,475.00 188.00,475.00 188.00,475.00 177.25,474.98 160.98,471.00 150.00,468.80 126.46,464.09 89.21,456.07 66.00,456.00 66.27,452.74 68.59,444.37 67.68,442.21 66.60,439.64 59.67,436.45 57.00,434.51 50.02,429.43 39.53,419.22 33.00,412.96 28.78,408.92 25.15,406.18 25.03,400.00 25.03,400.00 28.83,362.00 28.83,362.00 28.83,362.00 32.61,325.00 32.61,325.00 32.61,325.00 50.58,276.00 50.58,276.00 50.58,276.00 60.42,249.00 60.42,249.00 61.50,246.15 63.50,239.57 65.51,237.70 67.58,235.76 74.08,233.99 77.00,233.00 77.00,233.00 100.00,225.00 100.00,225.00 100.00,225.00 134.00,213.74 134.00,213.74 134.00,213.74 171.00,205.58 171.00,205.58 171.00,205.58 200.00,199.74 200.00,199.74 200.00,199.74 221.00,204.00 221.00,204.00 221.00,204.00 275.00,216.21 275.00,216.21 282.28,217.78 293.04,220.91 300.00,221.24 300.00,221.24 320.00,221.24 320.00,221.24 323.04,221.46 328.06,222.67 330.91,221.24 333.76,220.43 337.39,215.43 339.41,213.00 346.21,204.83 357.29,191.76 349.50,181.00 346.65,177.06 327.73,159.89 323.00,155.72 323.00,155.72 300.00,134.32 300.00,134.32 300.00,134.32 282.00,121.29 282.00,121.29 278.40,118.73 269.00,112.58 266.65,109.70 264.41,106.97 261.46,98.67 260.00,95.00 258.91,92.26 256.46,86.84 256.83,84.00 257.34,80.14 266.22,70.72 269.00,67.00 274.61,68.60 279.65,71.71 285.00,74.00 311.35,85.29 311.14,84.61 335.00,101.28 335.00,101.28 356.71,116.32 356.71,116.32 356.71,116.32 385.44,151.83 385.44,151.83 388.92,155.51 398.46,161.94 403.00,165.00 Z" />
</svg>
