<?xml version="1.0" encoding="UTF-8" standalone="no"?>
<!DOCTYPE svg PUBLIC "-//W3C//DTD SVG 20010904//EN"
              "http://www.w3.org/TR/2001/REC-SVG-20010904/DTD/svg10.dtd">

<svg xmlns="http://www.w3.org/2000/svg"
     width="5.55556in" height="5.55556in"
     viewBox="0 0 500 500">
  <path id="Selection"
        fill="none" stroke="black" stroke-width="1"
        d="M 25.00,285.00 C 25.00,282.45 24.71,275.32 25.57,273.30 26.58,270.93 29.97,268.60 32.00,267.00 35.94,263.88 45.68,256.98 48.37,253.71 48.37,253.71 59.26,233.00 59.26,233.00 62.72,226.41 65.00,224.43 69.72,219.00 69.72,219.00 106.01,178.32 106.01,178.32 106.01,178.32 128.00,163.33 128.00,163.33 132.13,160.58 142.07,153.62 146.00,151.95 146.00,151.95 167.00,146.12 167.00,146.12 176.26,143.68 189.80,139.05 199.00,139.00 199.00,139.00 224.00,138.00 224.00,138.00 224.00,138.00 241.00,137.00 241.00,137.00 246.46,137.07 271.08,141.87 276.00,143.84 280.06,145.46 289.03,152.17 293.00,155.00 293.00,155.00 333.00,186.92 333.00,186.92 336.93,190.20 351.96,202.63 356.00,203.77 359.01,204.62 363.95,202.72 367.00,201.86 373.55,200.01 380.26,198.89 387.00,198.00 387.00,198.00 388.00,201.00 388.00,201.00 397.84,195.89 418.26,186.58 429.00,186.10 433.06,185.92 444.34,188.15 449.00,188.92 458.38,190.47 465.92,189.71 471.83,198.00 473.21,199.94 474.26,201.63 474.72,204.00 475.30,207.00 474.26,211.75 474.00,215.00 474.00,215.00 468.00,214.00 468.00,214.00 468.00,217.78 468.39,221.65 466.26,224.98 462.96,230.17 457.34,231.81 452.00,234.01 452.00,234.01 422.00,245.00 422.00,245.00 421.94,250.89 416.83,252.29 412.00,254.19 412.00,254.19 377.00,267.00 377.00,267.00 377.00,267.00 378.00,270.00 378.00,270.00 382.17,270.34 389.63,271.17 392.57,274.30 395.04,276.93 395.52,282.45 396.20,286.00 398.85,299.81 399.07,299.95 399.00,314.00 398.98,317.59 398.49,323.50 397.73,326.96 397.73,326.96 396.13,332.28 396.13,332.28 395.55,337.17 398.60,338.81 393.00,342.00 393.00,342.00 392.00,335.00 392.00,335.00 392.00,335.00 383.00,348.00 383.00,348.00 383.00,348.00 381.00,340.00 381.00,340.00 381.00,340.00 376.00,340.00 376.00,340.00 376.00,340.00 376.00,349.00 376.00,349.00 376.00,349.00 371.00,349.00 371.00,349.00 371.00,349.00 370.00,341.00 370.00,341.00 364.95,339.28 364.91,335.71 363.33,331.00 358.42,316.25 360.39,314.38 358.00,306.00 358.00,306.00 342.45,347.91 342.45,347.91 342.45,347.91 339.40,352.28 339.40,352.28 335.57,357.96 338.59,360.46 332.00,363.00 332.60,356.92 332.45,356.81 327.00,354.00 327.00,354.00 323.00,363.00 323.00,363.00 323.00,363.00 320.00,362.00 320.00,362.00 320.00,362.00 323.00,353.00 323.00,353.00 323.00,353.00 319.00,352.00 319.00,352.00 319.00,352.00 315.00,362.00 315.00,362.00 315.00,362.00 311.00,361.00 311.00,361.00 311.00,361.00 314.00,350.00 314.00,350.00 309.45,352.49 308.96,355.39 307.00,360.00 301.77,356.87 304.74,354.60 305.12,348.00 305.58,339.70 309.60,322.29 312.00,314.00 312.00,314.00 276.00,321.80 276.00,321.80 276.00,321.80 248.00,326.00 248.00,326.00 248.00,326.00 220.00,326.00 220.00,326.00 220.00,326.00 203.00,327.00 203.00,327.00 203.00,327.00 174.00,327.00 174.00,327.00 174.00,327.00 146.00,329.66 146.00,329.66 146.00,329.66 100.00,323.00 100.00,323.00 100.00,323.00 108.76,335.00 108.76,335.00 108.76,335.00 105.27,343.00 105.27,343.00 105.27,343.00 104.00,352.00 104.00,352.00 104.00,352.00 95.79,347.84 95.79,347.84 95.79,347.84 86.00,347.84 86.00,347.84 86.00,347.84 86.00,354.00 86.00,354.00 86.00,354.00 78.73,349.02 78.73,349.02 78.73,349.02 71.00,348.00 71.00,348.00 71.00,348.00 71.00,356.00 71.00,356.00 71.00,356.00 66.00,357.00 66.00,357.00 64.97,354.72 63.89,351.38 61.73,350.02 58.93,348.27 50.05,350.33 46.60,341.00 45.47,337.95 44.88,326.13 45.96,323.00 47.12,319.67 51.62,313.51 50.01,310.21 48.28,306.64 35.18,301.14 31.48,297.24 28.79,294.40 28.31,288.77 28.00,285.00 28.00,285.00 25.00,285.00 25.00,285.00 Z" />
</svg>
